<?xml version="1.0" encoding="utf-8"?>
<!-- Generator: Adobe Illustrator 22.0.1, SVG Export Plug-In . SVG Version: 6.00 Build 0)  -->
<svg version="1.1" id="Layer_1" xmlns="http://www.w3.org/2000/svg" xmlns:xlink="http://www.w3.org/1999/xlink" x="0px" y="0px"
	 viewBox="0 0 1265.5 478.5" style="enable-background:new 0 0 1265.5 478.5;" xml:space="preserve">
<style type="text/css">
	.st0{fill:#FFFFFF;}
	.st1{font-family:'GDSTransportWebsite-Bold';}
	.st2{font-size:10.3819px;}
	.st3{fill:#A7A9AC;}
	.st4{fill:none;stroke:#DEE0E2;stroke-width:5;stroke-miterlimit:10;}
	.st5{fill:#EFC319;}
	.st6{fill:#FFFFFF;stroke:#A7A9AC;stroke-width:5;stroke-miterlimit:10;}
	.st7{fill:none;}
	.st8{fill:#FFFFFF;stroke:#277CAE;stroke-width:17;stroke-miterlimit:10;}
	.st9{fill:none;stroke:#000000;stroke-width:5;stroke-miterlimit:10;}
	.st10{fill:none;stroke:#277CAE;stroke-width:5;stroke-miterlimit:10;}
	.st11{enable-background:new    ;}
	.st12{font-size:11.5151px;}
	.st13{font-family:'GDSTransportWebsite';}
	.st14{font-size:9.8378px;}
	.st15{font-size:8.8541px;}
	.st16{fill:#CCCCCC;}
	.st17{font-size:15.5075px;}
	.st18{fill:none;stroke:#A7A9AC;stroke-width:5;stroke-miterlimit:10;}
	.st19{font-size:18px;}
	.st20{fill:none;stroke:#EFC319;stroke-width:5;stroke-miterlimit:10;}
	.st21{fill:#FFFFFF;stroke:#EFC319;stroke-width:16;stroke-miterlimit:10;}
	.st22{font-size:46px;}
	.st23{font-size:30px;}
	.st24{font-size:40px;}
	.st25{font-family:'Arial-BoldMT';}
</style>
<g>
	<rect x="2" y="3" width="293.7" height="19.7"/>
	<path class="st0" d="M22.1,18.4c2.1,0,4.1,0.1,5.9,0.4c0.5-2.1,1.1-3.3,1.7-4.2l-1.2-0.4c0.1,0.6,0.1,0.9,0,1.3
		c-0.2-0.2-0.4-0.5-0.5-1.1l-0.6,1.9c0.3-0.2,0.6-0.4,0.9-0.4c-0.5,1.2-1.2,1.5-1.7,1.4c-0.5-0.1-0.8-0.6-0.7-1c0.1-0.6,0.7-0.7,1,0
		c0.5-1.1-0.4-1.4-0.9-1.1c0.9-0.9,1-1.7,0.3-2.7c-1,0.8-1,1.5-0.5,2.6c-0.6-0.7-1.5-0.3-1.2,0.8c0.4-0.6,1-0.2,0.9,0.4
		c-0.1,0.5-0.8,1-1.7,0.9c-1.3-0.1-1.3-1-1.4-1.7c0.3,0,0.9,0.2,1.4,0.9l0.2-2c-0.5,0.5-1,0.6-1.5,0.7c0.2-0.5,1-1.4,1-1.4h-1.2l0,0
		l0,0h-1.4c0,0,0.8,0.9,1,1.4c-0.5,0-1-0.1-1.5-0.7l0.2,2c0.5-0.7,1-1,1.4-0.9c0,0.7-0.1,1.6-1.4,1.7c-0.9,0-1.7-0.4-1.7-0.9
		c-0.1-0.6,0.5-1,0.9-0.4c0.3-1.1-0.6-1.4-1.2-0.8c0.4-1.1,0.4-1.8-0.5-2.6c-0.7,0.9-0.6,1.8,0.3,2.7c-0.6-0.3-1.5,0-0.9,1.1
		c0.3-0.7,0.9-0.5,1,0c0.1,0.4-0.1,0.9-0.7,1c-0.4,0.1-1.1-0.2-1.7-1.4c0.3,0,0.6,0.1,0.9,0.4l-0.6-1.9c-0.1,0.5-0.3,0.9-0.5,1.1
		c-0.1-0.4-0.1-0.7,0-1.3l-1.2,0.4c0.6,0.8,1.2,2.1,1.7,4.2C18,18.5,20,18.4,22.1,18.4"/>
	<path class="st0" d="M27.2,10.6c-0.4,0.2-0.9,0-1.1-0.5c-0.2-0.4,0-0.9,0.5-1.1c0.4-0.2,0.9,0,1.1,0.5
		C27.8,9.9,27.6,10.4,27.2,10.6"/>
	<path class="st0" d="M25,11.3c-0.4,0.2-0.9,0-1.1-0.5c-0.2-0.4,0-0.9,0.5-1.1c0.4-0.2,0.9,0,1.1,0.5C25.6,10.6,25.4,11.1,25,11.3"
		/>
	<path class="st0" d="M29.2,11.8c-0.4,0.2-0.9,0-1.1-0.5s0-0.9,0.5-1.1c0.4-0.2,0.9,0,1.1,0.5C29.8,11.1,29.6,11.6,29.2,11.8"/>
	<path class="st0" d="M29.7,14c-0.4,0.2-0.9,0-1.1-0.5s0-0.9,0.5-1.1c0.4-0.2,0.9,0,1.1,0.5C30.4,13.3,30.2,13.8,29.7,14"/>
	<path class="st0" d="M19.2,11.3c0.4,0.2,0.9,0,1.1-0.5c0.2-0.4,0-0.9-0.5-1.1c-0.4-0.2-0.9,0-1.1,0.5
		C18.5,10.6,18.7,11.1,19.2,11.3"/>
	<path class="st0" d="M17,10.6c0.4,0.2,0.9,0,1.1-0.5c0.2-0.4,0-0.9-0.5-1.1s-0.9,0-1.1,0.5C16.3,9.9,16.5,10.4,17,10.6"/>
	<path class="st0" d="M15,11.8c0.4,0.2,0.9,0,1.1-0.5s0-0.9-0.5-1.1s-0.9,0-1.1,0.5C14.4,11.1,14.6,11.6,15,11.8"/>
	<path class="st0" d="M14.4,14c0.4,0.2,0.9,0,1.1-0.5c0.2-0.4,0-0.9-0.5-1.1c-0.4-0.2-0.9,0-1.1,0.5C13.8,13.3,14,13.8,14.4,14"/>
	<path class="st0" d="M22.5,9.1L22.5,9.1l1.1,0.6V8l-1.1,0.3l0,0c0,0,0-0.1-0.1-0.1l0,0l0.4-1.4h-0.8h-0.8l0.4,1.4l0,0
		c0,0-0.1,0-0.1,0.1l0,0L20.6,8v1.6l1.1-0.6l0,0c0,0,0,0.1,0.1,0.1l-0.6,1.9l0,0l0,0l0,0c0,0.1,0,0.2,0,0.3c0,0.5,0.4,0.9,0.9,1l0,0
		c0,0,0.1,0,0.1,0s0.1,0,0.1,0l0,0c0.5,0,0.9-0.5,0.9-1c0-0.1,0-0.2,0-0.3l0,0l0,0l0,0L22.5,9.1C22.5,9.1,22.5,9.1,22.5,9.1"/>
	<text transform="matrix(1 0 0 1 33.2056 18.223)" class="st0 st1 st2">Student finance account </text>
</g>
<g>
	<rect x="9.7" y="314.9" class="st3" width="190.5" height="2.5"/>
	<rect x="9.7" y="324.6" class="st3" width="190.5" height="2.5"/>
	<rect x="9.7" y="334.1" class="st3" width="256.2" height="2.5"/>
	<rect x="9.7" y="343.9" class="st3" width="256.2" height="2.5"/>
</g>
<g>
	<g>
		<polygon class="st5" points="7.2,286.4 284.1,283.9 287.2,180.4 1261.8,286.5 142.8,480.2 		"/>
	</g>
</g>
<image style="overflow:visible;" width="1772" height="236" xlink:href="../../../../../../Downloads/student-finance-england_logo.jpg"  transform="matrix(7.001570e-02 0 0 7.001570e-02 9.7 34.0584)">
</image>
<g>
	<g>
		<text transform="matrix(1 0 0 1 23.7443 98.5311)" class="st11"><tspan x="0" y="0" class="st1 st12">Tuition Fee Loan- </tspan><tspan x="89.9" y="0" class="st13 st12">paid to your college or university</tspan></text>
		<text transform="matrix(1 0 0 1 23.7443 155.6883)" class="st1 st14">Total:</text>
		<text transform="matrix(1 0 0 1 122.8371 129.7821)" class="st13 st15">Repayable</text>
		<rect x="23.7" y="135.7" class="st16" width="248.2" height="2.5"/>
		<rect x="23.7" y="106.7" width="248.2" height="2.5"/>
		<text transform="matrix(1 0 0 1 235.1417 156.9998)" class="st1 st17">£x.xx</text>
		<text transform="matrix(1 0 0 1 23.7443 129.1248)" class="st13 st15">Tuition Fee Loan</text>
		<text transform="matrix(1 0 0 1 235.1417 130.4373)" class="st1 st17">£x.xx</text>
	</g>
	<g>
		<text transform="matrix(1 0 0 1 23.7443 202.8133)" class="st11"><tspan x="0" y="0" class="st1 st12">Maintenance Loan- </tspan><tspan x="99.5" y="0" class="st13 st12">paid to you</tspan></text>
		<text transform="matrix(1 0 0 1 23.7443 259.9686)" class="st1 st14">Total:</text>
		<text transform="matrix(1 0 0 1 122.8371 234.0623)" class="st13 st15">Repayable</text>
		<rect x="23.7" y="240" class="st16" width="248.2" height="2.5"/>
		<rect x="23.7" y="211" width="248.2" height="2.5"/>
		<text transform="matrix(1 0 0 1 235.1417 261.2811)" class="st1 st17">£x.xx</text>
		<text transform="matrix(1 0 0 1 23.7443 233.4071)" class="st13 st15">Maintenance Loan</text>
		<text transform="matrix(1 0 0 1 235.1417 234.7176)" class="st1 st17">£x.xx</text>
	</g>
</g>
<rect x="2" y="3" class="st18" width="293.7" height="433.8"/>
<text transform="matrix(1 0 0 1 24.6619 68.6218)" class="st1 st19">Payments</text>
<rect x="9.7" y="182.9" class="st20" width="275" height="101"/>
<g>
	<g>
		<rect x="153.9" y="294.6" class="st21" width="1099.9" height="174.3"/>
	</g>
	<rect x="978.6" y="399.9" class="st5" width="242" height="52.1"/>
	<text transform="matrix(1 0 0 1 188.7869 355.4588)" class="st11"><tspan x="0" y="0" class="st1 st22">Maintenance Loan- </tspan><tspan x="397.4" y="0" class="st13 st22">paid to you</tspan></text>
	<text transform="matrix(1 0 0 1 188.7867 409.4736)" class="st13 st23">Maintenance Loan</text>
	<text transform="matrix(1 0 0 1 188.7867 447.8087)" class="st1 st24">Total:</text>
	<text transform="matrix(1 0 0 1 1009.7582 443.4673)" class="st25 st22">£5800.00</text>
</g>
<rect x="188.8" y="373.6" width="1031.8" height="4.3"/>
</svg>
