<?xml version="1.0" encoding="utf-8"?>
<!-- Generator: Adobe Illustrator 22.0.1, SVG Export Plug-In . SVG Version: 6.00 Build 0)  -->
<svg version="1.1" id="Layer_1" xmlns="http://www.w3.org/2000/svg" xmlns:xlink="http://www.w3.org/1999/xlink" x="0px" y="0px"
	 viewBox="0 0 1265.5 478.5" style="enable-background:new 0 0 1265.5 478.5;" xml:space="preserve">
<style type="text/css">
	.st0{fill:#FFFFFF;stroke:#A7A9AC;stroke-width:5;stroke-miterlimit:10;}
	.st1{fill:#A7A9AC;}
	.st2{fill:none;}
	.st3{enable-background:new    ;}
	.st4{font-family:'Arial-BoldMT';}
	.st5{font-size:11px;}
	.st6{fill:none;stroke:#DEE0E2;stroke-width:5;stroke-miterlimit:10;}
	.st7{fill:#EFC319;}
	.st8{fill:#FFFFFF;stroke:#277CAE;stroke-width:17;stroke-miterlimit:10;}
	.st9{font-size:46px;}
	.st10{font-size:12.2976px;}
	.st11{font-family:'ArialMT';}
	.st12{font-size:8px;}
	.st13{fill:none;stroke:#000000;stroke-width:5;stroke-miterlimit:10;}
	.st14{font-size:10px;}
	.st15{fill:none;stroke:#277CAE;stroke-width:5;stroke-miterlimit:10;}
</style>
<rect x="2" y="3" class="st0" width="293.7" height="433.8"/>
<rect x="14.3" y="91.4" class="st1" width="190.5" height="2.5"/>
<g>
	<rect x="13.9" y="100.7" class="st1" width="190.5" height="2.5"/>
	<rect x="13.9" y="110.4" class="st1" width="190.5" height="2.5"/>
	<rect x="13.9" y="120" class="st1" width="256.2" height="2.5"/>
	<rect x="13.9" y="129.7" class="st1" width="256.2" height="2.5"/>
</g>
<g>
	<rect x="9.7" y="285.9" class="st1" width="190.5" height="2.5"/>
	<rect x="9.7" y="295.6" class="st1" width="190.5" height="2.5"/>
	<rect x="9.7" y="305.1" class="st1" width="256.2" height="2.5"/>
	<rect x="9.7" y="314.9" class="st1" width="256.2" height="2.5"/>
</g>
<rect x="13.9" y="54.2" class="st2" width="267.8" height="37.2"/>
<text transform="matrix(1 0 0 1 13.8566 63.6855)" class="st3"><tspan x="0" y="0" class="st4 st5">Your 2018/19 student finance application </tspan><tspan x="0" y="13.2" class="st4 st5">has been approved</tspan></text>
<path class="st6" d="M281.6,273.6"/>
<path class="st6" d="M281.6,224.9"/>
<g>
	<g>
		<polygon class="st7" points="7.5,260.7 284.2,260.4 285,221.3 1265.5,283.6 142.7,480.2 		"/>
	</g>
</g>
<g>
	<g>
		<rect x="153.9" y="294.6" class="st8" width="1099.9" height="174.3"/>
	</g>
	<rect x="978.6" y="335" class="st7" width="242" height="78"/>
	<text transform="matrix(1 0 0 1 188.7869 391.4588)" class="st4 st9">Total student finance we’ll pay you:</text>
	<text transform="matrix(1 0 0 1 1009.7581 391.4589)" class="st4 st9">£5800.00</text>
</g>
<g>
	<text transform="matrix(1 0 0 1 228.4859 165.6024)" class="st4 st10">£x.xx</text>
	<text transform="matrix(1 0 0 1 14.3 165.6023)" class="st11 st12">Total student finance we’ll pay to your university or college</text>
	<rect x="9.7" y="148.3" class="st13" width="273" height="34.6"/>
</g>
<g>
	<text transform="matrix(1 0 0 1 20.857 242.9559)" class="st4 st14">Total student finance we’ll pay you</text>
	<text transform="matrix(1 0 0 1 228.4859 242.9559)" class="st4 st10">£x.xx</text>
	<rect x="9.7" y="222.7" class="st15" width="273" height="34.6"/>
</g>
<image style="overflow:visible;" width="1772" height="236" xlink:href="../../../../../../Downloads/student-finance-england_logo.jpg"  transform="matrix(0.1018 0 0 0.1018 110.2634 15.6695)">
</image>
</svg>
